# Blender 4.0.2
# www.blender.org
mtllib Book.mtl
o Book
v -0.083221 -0.013802 0.142175
v -0.083221 0.013802 0.142175
v -0.083221 -0.013802 -0.142175
v -0.083221 0.013802 -0.142175
v 0.083221 -0.013802 0.142175
v 0.083221 0.013802 0.142175
v 0.083221 -0.013802 -0.142175
v 0.083221 0.013802 -0.142175
v -0.083221 -0.008041 0.142175
v -0.083221 -0.008041 -0.142175
v 0.083221 -0.008041 -0.142175
v -0.083221 0.008041 0.142175
v -0.083221 0.008041 -0.142175
v 0.083221 0.008041 -0.142175
v 0.083221 0.008041 0.142175
v 0.083221 -0.008041 0.142175
v -0.065926 -0.013802 -0.142175
v -0.065926 0.013802 -0.142175
v -0.065926 -0.013802 0.142175
v -0.065926 0.013802 0.142175
v -0.065926 -0.008041 0.142175
v -0.065926 0.008041 0.142175
v -0.065926 0.008041 -0.142175
v -0.065926 -0.008041 -0.142175
v 0.062934 0.008041 -0.114853
v 0.062934 -0.008041 -0.114853
v 0.062934 0.008041 0.114853
v 0.062934 -0.008041 0.114853
v -0.065899 -0.008041 -0.114853
v -0.065899 0.008041 -0.114853
v -0.065899 -0.008041 0.114853
v -0.065899 0.008041 0.114853
v -0.076995 -0.013802 -0.142175
v -0.076995 0.013802 0.142175
v -0.076995 0.008041 0.142175
v -0.076995 -0.008041 0.142175
v -0.076995 0.013802 -0.142175
v -0.076995 -0.013802 0.142175
v -0.076995 -0.008041 -0.142175
v -0.076995 0.008041 -0.142175
v -0.074509 0.011664 -0.139943
v -0.074509 -0.011664 0.139943
v -0.074509 -0.006795 -0.139943
v -0.074509 0.006795 -0.139943
v -0.074509 -0.011664 -0.139943
v -0.074509 0.011664 0.139943
v -0.074509 0.006795 0.139943
v -0.074509 -0.006795 0.139943
vn -1.0000 -0.0000 -0.0000
vn -0.0000 -0.0000 -1.0000
vn 1.0000 -0.0000 -0.0000
vn -0.0000 -0.0000 1.0000
vn -0.0000 -1.0000 -0.0000
vn -0.0000 1.0000 -0.0000
vn -0.2517 -0.0000 -0.9678
vn 1.0000 -0.0000 0.0010
vn -0.2417 -0.9704 -0.0000
vn 1.0000 -0.0000 -0.0010
vn 0.6682 -0.0000 0.7440
vn 0.6521 0.7581 -0.0000
vn -0.2517 -0.0000 0.9678
vn -0.2417 0.9704 -0.0000
vn 0.6682 -0.0000 -0.7440
vn 0.6521 -0.7581 -0.0000
vt 0.553537 0.047708
vt 0.574184 0.047708
vt 0.574184 0.273568
vt 0.553537 0.273568
vt 0.553537 0.297609
vt 0.574184 0.297609
vt 0.574184 0.500000
vt 0.553537 0.500000
vt 0.574184 0.725860
vt 0.553537 0.725860
vt 0.553537 0.943843
vt 0.574184 0.943843
vt 0.574184 0.952292
vt 0.553537 0.952292
vt 0.063645 0.537554
vt 0.433721 0.537554
vt 0.433721 0.296403
vt 0.063645 0.296403
vt 0.036181 0.988333
vt 0.020732 0.988333
vt 0.020732 0.282779
vt 0.036181 0.282779
vt 0.475257 0.943843
vt 0.495903 0.943843
vt 0.495903 0.952292
vt 0.475256 0.952292
vt 0.475257 0.500000
vt 0.495903 0.500000
vt 0.495903 0.725860
vt 0.475257 0.725860
vt 0.475257 0.297609
vt 0.495903 0.297609
vt 0.475256 0.047708
vt 0.495903 0.047708
vt 0.495903 0.273568
vt 0.475257 0.273568
vt 0.849081 0.950043
vt 0.604189 0.950026
vt 0.627718 0.920178
vt 0.825557 0.920191
vt 0.849156 0.730573
vt 0.825624 0.730587
vt 0.500367 0.285827
vt 0.549073 0.285827
vt 0.604149 0.730566
vt 0.604150 0.668083
vt 0.627680 0.668066
vt 0.627685 0.730583
vt 0.482919 0.285827
vt 0.495903 0.928251
vt 0.475257 0.928251
vt 0.433721 0.988333
vt 0.063645 0.988333
vt 0.063645 0.282779
vt 0.433721 0.282779
vt 0.042348 0.535661
vt 0.042348 0.298296
vt 0.574184 0.928251
vt 0.553537 0.928251
vt 0.566522 0.285827
vt 0.980936 0.655087
vt 0.882958 0.655087
vt 0.882958 0.344913
vt 0.980936 0.344913
vt 0.980936 0.952292
vt 0.882958 0.952292
vt 0.882958 0.047708
vt 0.980936 0.047708
vt 0.849156 0.668085
vt 0.825619 0.668070
vt 0.849073 0.448604
vt 0.825549 0.478457
vt 0.604185 0.448639
vt 0.627713 0.478485
vt 0.574184 0.282017
vt 0.553537 0.282017
vt 0.020732 0.537554
vt 0.036181 0.537554
vt 0.036181 0.296403
vt 0.020732 0.296403
vt 0.495903 0.282017
vt 0.475257 0.282017
vt 0.500367 0.940033
vt 0.549073 0.940033
vt 0.482919 0.940033
vt 0.042348 0.982793
vt 0.042348 0.288318
vt 0.566522 0.940033
s 0
usemtl Book
f 12/1/1 2/2/1 4/3/1 13/4/1
f 23/5/2 18/6/2 8/7/2 14/8/2
f 14/8/3 8/7/3 6/9/3 15/10/3
f 35/11/4 34/12/4 2/13/4 12/14/4
f 17/15/5 7/16/5 5/17/5 19/18/5
f 37/19/6 4/20/6 2/21/6 34/22/6
f 38/23/4 36/24/4 9/25/4 1/26/4
f 7/27/3 11/28/3 16/29/3 5/30/3
f 17/31/2 24/32/2 11/28/2 7/27/2
f 1/33/1 9/34/1 10/35/1 3/36/1
f 9/34/1 12/1/1 13/4/1 10/35/1
f 36/24/4 35/11/4 12/14/4 9/25/4
f 14/37/5 15/38/5 27/39/5 25/40/5
f 23/41/5 14/37/5 25/40/5 30/42/5
f 43/43/7 44/44/7 23/5/7 24/32/7
f 22/45/8 21/46/8 31/47/8 32/48/8
f 45/49/7 43/43/7 24/32/7 17/31/7
f 5/30/4 16/29/4 21/50/4 19/51/4
f 8/52/6 18/53/6 20/54/6 6/55/6
f 45/56/9 17/15/9 19/18/9 42/57/9
f 15/10/4 6/9/4 20/58/4 22/59/4
f 44/44/7 41/60/7 18/6/7 23/5/7
f 26/61/3 25/62/3 27/63/3 28/64/3
f 29/65/2 30/66/2 25/62/2 26/61/2
f 28/64/4 27/63/4 32/67/4 31/68/4
f 15/38/5 22/45/5 32/48/5 27/39/5
f 24/69/10 23/41/10 30/42/10 29/70/10
f 11/71/6 24/69/6 29/70/6 26/72/6
f 16/73/6 11/71/6 26/72/6 28/74/6
f 21/46/6 16/73/6 28/74/6 31/47/6
f 13/4/2 4/3/2 37/75/2 40/76/2
f 3/77/5 33/78/5 38/79/5 1/80/5
f 3/36/2 10/35/2 39/81/2 33/82/2
f 10/35/2 13/4/2 40/76/2 39/81/2
f 48/83/11 47/84/11 35/11/11 36/24/11
f 42/85/11 48/83/11 36/24/11 38/23/11
f 41/86/12 37/19/12 34/22/12 46/87/12
f 47/84/11 46/88/11 34/12/11 35/11/11
f 22/59/13 20/58/13 46/88/13 47/84/13
f 18/53/14 41/86/14 46/87/14 20/54/14
f 19/51/13 21/50/13 48/83/13 42/85/13
f 21/50/13 22/59/13 47/84/13 48/83/13
f 40/76/15 37/75/15 41/60/15 44/44/15
f 33/78/16 45/56/16 42/57/16 38/79/16
f 33/82/15 39/81/15 43/43/15 45/49/15
f 39/81/15 40/76/15 44/44/15 43/43/15
